<svg xmlns="http://www.w3.org/2000/svg" id='us-map'>
<rect id="zoom-area"/>
<path class="state border" id="AK" d="M99.257 272.085l-.21 55.557 1.052.63 1.998.106.947-.736h1.683l.106 1.894 4.524 4.42.316 1.683 2.21-1.264.42-.105.21-2 .948-1.05.736-.106 1.263-.947 2 1.368.42 1.894 1.264.735.736 1.58 2.525 1.156 2.21 3.894 1.79 2.526 1.472 1.788.947 2.42 3.262 1.158 3.367 1.368.63 2.84.317 2-.63 2.21-1.16 1.473-1.05-.526-.948-2-1.79-.946-1.156-.736-.526.526.947 1.79.105 2.42-.737.314-1.262-1.262-1.368-.842.315 1.052.842 1.158-.526.526s-.526-.21-.842-.632c-.315-.42-1.368-2.21-1.368-2.21l-.63-1.472s-.21.84-.632.63c-.42-.21-.842-.946-.842-.946l1.157-1.263-.948-.947v-3.26h-.526l-.526 2.208-.736.316-.632-2.42-.42-2.42-.527-.316.21 3.683v.737l-.946-.84-2.316-3.895-1.368-.315-.42-2.42-1.053-1.894-1.052-.737v-1.473l1.37-.842-.317-.21-1.683.422-2.21-1.58-1.684-1.893-3.156-1.684-2.63-1.684.84-2.104v-1.052l-1.156 1.052-1.894.736-2.42-.736-3.683-1.578H90.84l-.422.315-4.208-2.525-1.368-.21-1.79-3.788-2.314.21-2.315.947.316 2.945.735-1.894.632.212-.947 2.84 2.104-1.788.42 1.052-2.524 2.84-.842-.21-.316-1.262-.84-.526-.843.736-1.79-1.157-2 1.368-1.157 1.368-2.21 1.368-3.05-.105-.316-1.368 2.42-.42v-.842l-1.473-.42.63-1.58 1.474-2.525v-1.157l.105-.526 2.84-1.473.633.84h1.788l-.84-1.682-2.422-.21-3.26 1.788-1.58 2.21-1.157 1.683-.737 1.474-2.735.947-2 1.683-.21 1.052 1.473.63.526 1.368-1.79 2.105-4.207 2.736-5.05 2.734-1.37.737-3.47.737-3.473 1.474 1.157.842-.948.947-.316.736-1.788-.63-2.105.104-.526 1.473h-.63l.21-1.578-2.316.84-1.893.633-2.21-.842-1.893 1.262H26.55l-1.37.842-1.05.526-1.37-.21-1.682-.737-1.473.42-.632.632-1.052-.737v-1.263l2-.84 4.104.42 2.84-1.053 1.37-1.37 1.893-.42 1.157-.526 1.79.106 1.05.84.633-.21 1.473-1.788 2-.63 2.208-.422.842-.21.42.315h.527l.842-2.42 2.63-.947 1.262-2.42 1.473-2.946 1.052-.947.21-1.684-1.05.843-2.21.42-.422-1.577-.842-.21-.63.63-.106 1.895-.947-.105-.947-3.788-.842.842-.735-.316-.21-1.263-2.63.106-1.37.737-1.683-.21.947-.948.315-1.683-.42-1.263.946-.632.843-.106-.42-1.157v-2.84l-.633-.632-.526.947h-3.998l-.947-.842-.422-2.525-1.368-2.315v-.632l1.368-.526.105-1.367.737-.737-.526-.316-.842.316-.737-1.79.632-3.26 2.946-2.105 1.684-1.05 1.262-2.42 1.788-.843 1.683.736.212 1.58 1.578-.212 2.105-1.577 1.052.42.63.422h1.053l1.473-.842.527-2.84s.21-1.895.63-2.21c.422-.316.632-.632.632-.632l-.736-1.262-1.684.527-2.104.526-1.263-.315-2.315-1.157-3.262-.106-2.314-2.42.315-2.525.42-1.578-1.368-1.16-1.262-2.42.315-.525 4.42-.316h1.367l.632.63h.42l-.105-1.052 2.525-.42 1.683.21.947.737-.947 1.367-.316.947 1.79 1.052 3.26 1.157 1.16-.632-1.475-2.84-.63-2.106.63-.526-2.21-1.262-.315-.737.316-1.052-.526-2.525-1.894-3.052-1.58-2.736 1.895-1.262h2.105l1.157.42 2.736-.105 2.42-2.314.738-2 2.42-1.577 1.052.63 1.79-.42 2.42-1.367.735-.106.632.527 2.946-.106 1.79-1.998h.735l2.315 1.578 1.263 1.368-.316.737.42.736 1.053-1.05 2.525.21.21 2.42 1.263.947 4.63.42 4.105 2.736.947-.63 3.367 1.683 1.367-.42 1.262-.527 3.156 1.26 2.84 1.895zM24.34 290.92l1.368 3.472-.106.63-1.894-.21-1.157-2.63-1.157-.947h-1.578l-.105-1.683 1.157-1.58.737 1.58.947.947 1.79.42zm-1.684 21.78l2.42.526 2.42.632.526.63-1.052 2.42-2-.104-2.21-2.315-.104-1.79zm-13.468-9.154l.736 1.684.737 1.052-.736.526-1.367-2v-1.262h.63zm-8.944 47.56l2.21-1.473 2.21-.63 1.683.21.316 1.05 1.262.317 1.263-1.263-.21-1.052 1.788-.42 1.894 1.683-.736 1.157-2.84.737-1.79-.316-2.42-.737-2.84.946-1.053.21-.736-.42zm31.882-2.946l1.052 1.262 1.368-1.052-.947-.842-1.474.632zm1.894 2l.737-1.474 1.367.21-.526 1.263H34.02zm15.362-1.264l.947 1.158.63-.737-.526-1.262-1.052.84zm5.682-8.102l.737 3.788 1.895.526 3.262-1.894 2.84-1.683-1.052-1.577.316-1.58-1.367.843-1.894-.526 1.05-.737 1.264.526 2.525-1.158.315-.947-1.578-.526.526-1.264-1.79 1.263-3.05 2.314-3.157 1.894-.842.736zm27.568-12.942l1.578-.947-.63-1.157-1.158.63.21 1.474z"/>
<path class="state border" id="AL" d="M407.27 295.844l-.97-9.32-1.79-12.207.105-9.154.527-20.202-.106-10.837.108-4.178 28.954-2.356-.097 1.42.107 1.368.42 2.21 2.21 5.155 1.578 6.418.947 4 1.053 3.156.947 4.525 1.367 4.105 1.683 2.21.316 2.21 1.26.525.106 1.368-1.157 3.156-.317 2.105-.105 1.26 1.052 2.842.21 3.473-.525 1.578.42.526.948.525.213 1.88-3.643-.23-4.42.42-16.624 1.895-6.778.916-.144 1.873 1.157 1.156 1.684 1.263.377 5.164-3.607 1.674-1.79-.21 1.79-1.263v-.63l-2-3.894-1.472-.42-.947 2.84-.84 1.79-.422-.106h-1.79z"/>
<path class="state border" id="AR" d="M382.873 219.456l-2.59.467-3.327-.413.273-1.043 1.94-1.67.613-2.38-1.19-1.935-51.04 1.637 1.04 4.463v5.357l.894 7.143.15 24.627 1.487 1.265 1.934-.893 1.786.744.443 4.278 36.202-.742.745-1.36-.187-2.31-1.188-1.935 1.04-.967-1.04-1.635.445-1.633.89-3.65 1.64-1.34-.446-1.488 2.38-3.496 1.785-.89-.074-.973-.224-1.188 1.86-3.645 1.564-.817.25-2.23 1.153-.81-2.047-.315-.873-2.61 1.825-1.547.36-1.314.83-2.635.695-2.12z"/>
<path class="state border" id="AZ" d="M90.688 245.215l-1.71 1.405-.21.947.315.63 12.31 6.946 7.893 4.945 9.575 5.577 10.943 6.524 7.997 1.577 16.24 1.76 11.23-77.536-54.5-7.756-2.013 10.683-1.045.01-1.116 1.71-1.637-.074-.82-1.785-1.785-.223-.595-.744h-.595l-.596.373-1.265.67-.075 4.538-.15 1.117-.37 8.184-.968 1.415-.372 2.157 1.786 3.2.818 3.794.52.67.67.372-.074 1.488-1.04.893-2.233 1.115-1.265 1.264-.968 2.38-.372 3.2-1.86 1.785-1.34.447.09.54-.298 1.116.297.52 2.382.373-.372 1.786-.967 1.414-2.455.595z"/>
<path class="state border" id="CA" d="M90.547 244.935l2.564-.318.968-1.31.355-1.914-2.312-.384-.333-.436.31-1.323-.103-.382 1.25-.404 1.982-1.843.378-3.25.898-2.215 1.265-1.41 2.29-1.035 1.077-1.044.045-1.373-.648-.377-.666-.698-.75-3.807-1.75-3.143.37-2.28-1.576-.67-44.95-67.808 12.303-44-43.66-10.218-.98 3.08-.106 4.84-3.368 7.682-2 1.683-.21.737-1.158.526-.947 2.736-.526 2.104 1.788 2.736 1.052 2.735.737 2.316-.21 4.21-1.158 1.998-.422 3.788-.63 2.42 1.156 2.526 1.79 2.946 1.472 3.156.842 2.63-.21 2.105-.21.316v1.37l3.682 4.102-.316 1.58-.42 1.472-.422 1.262.105 5.367 1.368 2.42 1.263 1.683 1.79.316.63 1.79-.737 2.314-1.366 1.052h-.737l-.526 2.525.317 1.894 2.104 2.84 1.053 3.473.947 3.052.842 2 2.21 3.787.947 1.682.314 1.894 1.052.632v1.578l-.526 1.263-1.157 4.628-.316 1.263 1.58 1.79 2.734.315 2.947 1.158 2.526 1.368h1.894l1.894 2 1.684 3.156.737 1.473 2.526 1.367 3.157.526.947 1.368.42 2.106-.946.42.21.632 2.104.526 1.79.105 2.056-1.1 2.525 2.737.525 1.473 1.684 2.736.21 2.104v6.103l.315 1.157 6.523.947 12.837 1.79 9.012.878zM33.182 216.48l.842 1-.105.842-2.106-.053-.368-.79-.42-.947 2.156-.052zm1.263 0l.79-.42 2.314 1.368 1.998.79-.58.42-2.945-.158-1.052-1.052-.525-.947zm13.468 12.89l1.157 1.526.526.63 1 .37.368-.947-.63-1.16-1.737-1.314-.684.105v.79zm-.947 5.63l1.157 2.05.79 1.264-.948.158-.84-.79s-.475-.946-.475-1.21v-1.42l.316-.052z"/>
<path class="state border" id="CO" d="M243.722 205.08l3.19-56.187-73.8-8.23-7.95 57.237 78.56 7.18z"/>
<path class="state border" id="CT" d="M565.276 112.59l-2.393-9.685-3.072.6-13.816 3.086.65 2.1.948 4.736.115 5.836-.794 1.416 1.25 1.257 2.78-2.542 2.315-2.104 1.263-1.37.527.422 1.79-.947 3.366-.737 5.073-2.07z"/>
<path class="dc border" id="DC" d="M520.855 159.44l-1.21-1.188-.802-.446.94-1.317 1.88 1.268-.808 1.682z"/>
<path class="state border" id="DE" d="M533.746 144.753l.24-1.397.244-1.1-1.056.258-1.05.304-1.437 1.15 1.12 3.28 1.472 3.684 1.367 6.313 1.052 4.103 3.26-.105 4-.768-1.475-4.808-.63.316-2.316-1.58-1.158-3.05-1.263-2.315-2.05-1.868-.562-1.366.238-1.05z"/>
<path class="state border" id="FL" d="M490.913 281.998l1.475 4.764 2.427 6.34 3.472 6.104 2.42 4.103 3.157 3.577 2.63 2.42 1.053 1.894-.737.842-.526.842 1.894 4.84 1.894 1.894 1.684 3.473 2.314 3.79 2.947 5.365.84 4.945.317 7.786.42 1.158-.21 2.21-1.578.84.21 1.264-.42 1.263.21 1.58.316 1.262-1.79 2.104-1.998.947-2.525.105-.948 1.052-1.58.632-.84-.316-.737-.63-.21-1.895-.526-2.21-2.21-3.366-2.316-1.473-2.525-.21-.527.842-2-2.84-.42-2.316-1.684-2.63-1.158-.737-1.053 1.367-1.158-.21-1.368-3.262-1.894-2.525-1.894-3.473-1.683-2-2.315-2.42 1.368-1.577 2.104-3.578-.105-1.052-2.946-.63-1.053.42.21.42 1.683.632-.946 2.946-.527.316-1.157-2.63-.842-3.157-.21-1.79.947-3.05v-6.208l-2-2.422-.84-2-3.368-.84-1.263-.42-1.052-1.685-2.21-1.052-.736-2.21-1.79-.63-1.577-2.42-2.737-.947-1.894-.947h-1.685l-2.63.526-.105 1.263.526.63-.316.738-2-.106-2.42 2.315-2.314 1.263h-2.525l-2.104.842-.21-1.79-1.052-1.262-1.894-.736-1.052-.948-5.26-2.526-4.947-1.157-2.84.42-3.893.315-3.893 1.368-2.265.4-.155-5.24-1.684-1.263-1.156-1.157.21-2 6.63-.84 16.624-1.895 4.42-.42 3.537.18 1.684 2.527.946.947 5.27.335 7.043-.42 14-.843 3.545-.438 3.324.133.277 1.893 1.454.526.154-3.015-.995-2.716.85-.938 3.616.296 3.367.21zm8.165 86.18l1.58-.422.84-.157.947-1.527 1.526-1.052.843.316 1.105.21.263.685-2.26.79-2.737.947-1.526.79-.58-.58zm8.786-3.263l.79.684 1.788-1.37 3.473-2.734 2.42-2.526 1.63-4.314.632-1.104.105-2.21-.473.316-.633 1.84-.947 3-2.104 3.42-2.84 2.735-2.21 1.263-1.632 1z"/>
<path class="state border" id="GA" d="M433.946 227.59v1.422l.105 1.368.422 2.21 2.21 5.155 1.578 6.42.947 3.997 1.052 3.157.946 4.523 1.368 4.104 1.683 2.21.316 2.21 1.263.525.105 1.368-1.157 3.156-.315 2.105-.105 1.264 1.052 2.84.21 3.473-.526 1.578.42.526.947.527.133 2.095 1.454 2.18 1.464 1.407 5.156.104 7.042-.42 14.002-.842 3.545-.44 2.98.02.104 1.893 1.684.526.21-2.84-1.05-2.946.735-1.052 3.788.526 3.24.206-.505-4.1 1.473-6.523.948-2.735-.315-1.683 2.17-4.064-.332-.88-1.244.458-1.684-.84-.42-1.37-.843-2.314-1.474-1.368-1.683-.42-1.052-3.157-1.903-4.124-2.736-1.262-1.367-1.262-.842-1.684-1.367-1.262-1.473-.842-1.473-1.894-2-1.473-2.945-1.157-.316-.947-1.578-1.895-.316-.947-2.21-3.236-2.29.065-2.444-1.534-.923-.84-.21-1.16.566-1.26 1.45-.724-.412-1.366-27.252 3.247z"/>
<path class="state border" id="HI" d="M144.955 319.804l1.263-2.315 1.473-.21.21.525-1.367 2h-1.578zm6.63-2.42l3.997 1.683 1.368-.21 1.052-2.525-.42-2.21-2.736-.316-2.63 1.158-.632 2.42zm19.99 6.524l2.42 3.577 1.58-.21.736-.316.948.84 2.42-.104.63-.947-1.893-1.16-1.263-2.42-1.367-2.314-3.788 1.894-.42 1.158zm13.153 5.787l.842-1.263 3.052.63.42-.314 4 .42-.212.842-1.683.947-2.84-.21-3.58-1.052zm3.473 3.367l1.263 2.525 2-.736.21-1.052-1.052-1.368-2.42-.21v.842zm4.525-.737l1.473-1.894 3.052 1.58 2.84.736 2.842 1.79v1.262l-2.315 1.157-3.157.63-1.578-.946-3.157-4.315zm10.838 10.1l1.052-.84 2.21 1.052 4.945 2.315 2.21 1.368 1.052 1.578 1.263 2.84 2.63 1.684-.21.842-2.526 2.105-2.736.946-.947-.42-2 1.156-1.578 2.105-1.474 1.894-1.157-.105-2.316-1.683-.21-2.946.42-1.58-1.052-3.68-1.368-1.16-.105-1.682 1.472-.632 1.368-2 .316-.63-1.053-1.158-.21-1.368z"/>
<path class="state border" id="IA" d="M366.84 126.076l.172 1.814 1.448.376.62.797.326 1.208 2.47 2.187.445 1.556-.438 2.23-1.03 2.103-.52 1.784-1.414 1.043-1.117.373-3.63 1.21-.906 2.505.475.894 1.197 1.095-.185 2.626-1.147 1-.502 1.07.083 1.808-1.228.298-1.058.72-.182.88.182 1.376-1.01.726-1.608-2.04-.82-1.594-42.787 1.637-.598.108-1.335-2.94-.15-4.315-1.04-2.678-.447-3.423-1.488-2.382-.596-3.125-1.784-4.91-.744-3.497-.893-1.414-1.043-1.785 1.272-3.153.892-3.72-1.786-1.34-.297-1.785.594-1.638h1.116l53.797-.826.543 2.722 1.466 1.016.167.927-1.32 2.207.123 2.086 1.637 2.472 1.645.842 2.004.328.428.54z"/>
<path class="state border" id="ID" d="M93.01 111.04l5.71-22.923.89-2.753 1.638-3.87-.818-1.487-1.637.074-.52-.668.297-.744.223-2.01 2.902-3.57 1.19-.298.744-.744.37-2.083.596-.447 2.53-3.794 2.53-2.828.15-2.455-2.234-1.712-1-2.865 8.87-41.227 8.797 1.646-2.87 13.917 2.318 4.87-1.03 3.035 1.283 3.02 2.043.818 2.496 6.22 2.286 2.888.33.745 2.174.744.24 1.364-4.537 11.31-.107 1.67 1.712 2.16.59-.03 3.196-1.97.44-.712 1.018.43-.18 3.483 1.782 8.19 2.55 2.068 1.094 1.41-.467 2.658.695 1.828.69.71 1.615-1.53 1.854.032 1.9.87 1.81-.445 2.47-.105 2.59 1.042 1.784-.193.324-1.978 1.908-.498.82.987.288 1.918.927.79-5.46 34.892s-57.253-10.87-61.805-11.85z"/>
<path class="state border" id="IL" d="M399.612 191.657l.02-2.102.37-3.024 1.517-1.897 1.214-2.653 1.454-2.6-.242-3.42-1.305-2.305-.062-2.178.452-3.43-.537-4.672-.694-10.27-.843-9.773-.6-7.576-.177-.6-.527-1.683-.84-2.42-1.053-1.158-.947-1.683-.152-3.573-29.807 1.69.15 1.544 1.487.447.595.745.298 1.19 2.53 2.232.446 1.488-.448 2.232-1.19 2.38-.447 1.638-1.488 1.19-1.19.447-3.423.893-.446 1.19-.446 1.34.446.892 1.19 1.042-.148 2.677-1.19 1.042-.447 1.04v1.786l-1.19.298-1.042.744-.148.893.15 1.34-1.117.855-.67 1.823.298 2.38 1.488 4.763 4.762 4.91 3.572 2.382-.15 2.828.596.892 4.167.298 1.785.893-.446 2.38-1.488 3.87-.447 2.083 1.49 2.53 4.166 3.422 2.976.446 1.34 3.274 1.34 2.083-.597 1.936 1.042 2.678 1.19 1.34.92-.574.592-1.35 1.44-1.137 1.386-.4 1.694.768 2.36.896.775-.194.13-1.47-.838-1.57.198-1.547 1.197-.877 1.967-.527.82-.297-.4-.903-.514-1.533.932-.638.754-2.093z"/>
<path class="state border" id="IN" d="M399.63 191.415l.043-1.86.315-2.946 1.473-1.895 1.16-2.526 1.682-2.736-.315-3.788-1.158-1.79-.21-2.103.525-3.578-.316-4.524-.843-10.416-.84-9.996-.633-7.628 2 .58.946.63.736-.21 1.368-1.263 1.842-1.053 3.315-.105 14.31-1.474 3.63-.347.978 10.384 2.767 23.98.39 3.756-.242 1.473.8 1.17.062.892-1.64 1.04-2.305 1.01-2.084.36-.39 3.167-2.977 2.156-1.82 2.61.21 1.547-.38.998h-2.164l-1.032-1.052-1.623.823-1.745.978.105 1.99-.777.167-.305-.662-1.41-.98-2.116.874-1.01 1.956-.935-.526-.947-1.04-2.906.314-3.64.632-1.894 1.01z"/>
<path class="state border" id="KS" d="M326.935 207.303l-8.213.133-29.998-.298-29.002-1.34-16.03-.818 2.534-42.043 14.373.44 26.223.547 28.834.643h3.317l1.42 1.408 1.315-.014 1.066.66-.04 1.958-1.19 1.123-.217 1.454 1.198 2.215 1.922 2.078 1.515 1.05.847 7.317.123 23.488z"/>
<path class="state border" id="KY" d="M468.9 188.356l-1.494 1.563-2.33 2.6-3.204 3.556-.79 1.116-.042 1.368-2.85 1.41-3.683 2.208-4.707 1.17-33.76 3.19-10.257 1.157-3.008.334-2.518-.02-.148 2.748-5.324.094-4.525.42-5.198-.04.786-.858 1.627-1.003.15-2.082.594-1.19-1.046-1.653.52-1.24 1.475-1.158 1.366-.42 1.79.84 2.314.842.737-.21.105-1.474-.842-1.58.21-1.472 1.263-.947 1.684-.42 1.052-.42-.527-1.16-.42-1.26.98-.65c0-.024.816-2.292.805-2.38l1.988-.963 3.462-.63 2.925-.317.907 1.06.994.566L411 189.03l2.074-.835 1.435.966.266.652.764-.172-.105-1.922 2.038-1.14 1.398-.697.996 1.082 2.16-.03.382-1.022-.24-1.473 1.694-2.603 3.11-2.237.458-3.148 1.904-.297 2.468-1.072 1.59-1.11-.13-1.02-.743-.946.368-1.95 2.723-.076 1.498-.485 2.18.93 1.336 2.84 3.34.008 1.335 1.438 1.05-.096 1.694-.832 3.41.373 1.675.142 1.097-1.338 1.704-.93 1.226-.46.42 1.848 1.33.688 1.72 1.356.078 3.69.526 1.025 1.685 1.013.502 1.493 2.708 2.238 1.175 2.358 1.6 1.08z"/>
<path class="state border" id="LA" d="M392.078 295.028l-2.138-2.06.658-3.58-.43-.582-6.03.655-16.29.3-.445-1.56.595-5.503 2.158-3.87 3.275-5.656-.373-1.56.818-.443.3-1.27-1.49-1.34-.072-1.263-1.192-2.83-.095-4.124-36.106.6.018 6.232.446 6.1.446 2.53 1.637 2.68.596 3.273 2.827 3.57.15 2.084.445.446-.446 5.506-1.936 3.273 1.042 1.34-.447 1.636-.447 4.763-.893 2.083.08 2.354 3.05-.99 7.884.136 6.735 2.314 4.207.737 2.42-.947 2.105.737 2.104.63.526-1.367-2.104-.737-1.684.316-1.788-1.053s.105-.842.526-.947c.42-.105 2-.63 2-.63l1.156.946 1.158-.632 2.104.42.947 1.58.21 1.473 2.947.21 1.157 1.157-.525 1.053-.842.526 1.053 1.052 5.47 2.315 2.316-.842.63-1.578 1.685-.42 1.157-.948.842.63.526 1.895-1.473.526.42.42 2.21-.84 1.472-2.21.527-.316-1.37-.21.527-1.053-.105-.947 1.367-.315.736-.842.42.526s-.104 2 .422 2 2.735.42 2.735.42l2.63 1.263.632.946h1.894l.736.63 1.473-1.998v-.947h-.843l-2.21-1.788-3.787-.526-2.105-1.473.737-1.79 1.473.212.105-.42-1.157-.633v-.315h2.104l1.157-2-.84-1.262-.212-1.79-.947.106-1.262 1.37-.42 1.683-2-.42-.632-1.158 1.16-1.263 1.237-2.243-.69-1.57-.76-2.592z"/>
<path class="state border" id="MA" d="M581.91 108.94l1.413-.448.298-1.116.67.075.67 1.49-.82.296-2.528.075.297-.37zm-6.102.52l1.488-1.712h1.042l1.19.967-1.562.67-1.414.67-.744-.596zm-22.65-14.312l11.486-3.02 1.474-.42 1.245-1.82 2.433-1.084 1.88 2.872-1.578 3.368-.21.947 1.262 1.684.736-.526h1.158l1.473 1.683 2.525 3.895 2.315.315 1.473-.63 1.158-1.158-.526-1.79-1.368-1.05-.947.525-.632-.842.316-.316 1.37-.106 1.156.526 1.263 1.578.63 1.894.21 1.58-2.735.946-2.525 1.262-2.526 2.947-1.262.947v-.632l1.578-.947.316-1.157-.526-2-1.894.948-.526.947.315 1.473-1.345.65-1.788-2.946-2.21-2.84-1.347-1.18-4.252 1.22-3.315.685-13.457 2.99-.433-3.105.42-6.892 2.792-.578 4.42-.842z"/>
<path class="state border" id="MD" d="M542.967 160.462l-3.91.784-3.35.076-1.2-4.505-1.25-5.968-1.676-4.03-.837-2.862-4.886 1.056-9.682 1.838-24.376 4.914.735 3.262.63 3.683.212-.21 1.367-1.578 1.474-1.704 1.578-.4.947-.947 1.157-1.683.842.42 1.894-.21 1.684-1.367 1.306-.946 1.2-.316 1.07.736 1.895.947 1.264 1.158.79 1 2.682 1.105v1.894l3.577.84.745.354.92-1.32 1.875 1.283-.832 1.616-.497 2.593-1.157 1.683v1.368l.42 1.158 3.297.882 2.805-.04 2 .63 1.368.212.63-1.368-.946-1.368v-1.158l-1.578-1.367-1.368-3.578.84-3.472-.104-1.368-.842-.842s.947-1.052.947-1.473c0-.42.316-1.368.316-1.368l1.264-.84 1.262-1.054.316.632-.947 1.052-.842 2.42.21.736 1.158.21.317 3.578-1.368.632.21 2.315.315-.106.737-1.263 1.052 1.157-1.052.842-.21 2.21 1.683 2.21 2.525.315 1.052-.525 2.107 2.722.883.35 4.33-1.82 1.307-2.62-.283-3.195zm-10.395 5.877l.737 1.63.104 1.157.737 1.21s.58-.58.58-.79c0-.21-.474-1.998-.474-1.998l-.474-1.527-1.21.316z"/>
<path class="state border" id="ME" d="M597.02 47.48l1.263 1.37 1.473 2.42v1.262l-1.368 3.05-1.263.422-2.21 2-3.156 3.577h-.843c-.42 0-.63-1.367-.63-1.367l-1.158.105-.633.947-1.578.947-.632.947 1.052.946-.316.42-.315 1.79-1.264-.106v-1.052l-.21-.842-.947.21-1.16-2.104-1.367.842.842.947.21.738-.526.84.21 2 .105 1.053-1.052 1.684-1.894.316-.212 1.894-3.472 2-.842.315-1.052-.948-2 2.315.632 2.104-.947.843-.105 2.84-.73 4.075-1.604-.752-.315-2-2.526-.736-.21-1.79-4.735-15.256-3.058-9.53.924-.075.986.265v-1.683l.85-2.927 1.685-3.05.946-2.632-1.263-1.578v-3.893l.526-.63.525-1.79-.105-.947-.105-3.157 1.157-3.156 1.894-5.788 1.368-2.735h.842l.842.104v.736l.84 1.474 1.79.42.526-.526v-.63l2.63-1.895 1.158-1.157.947.105 3.892 1.58 1.263.63 5.892 19.466h3.893l.527 1.263.105 3.156 1.894 1.473h.526l.105-.317-.316-.737 1.79-.105zm-13.624 19.623l1-1 .894.685.37 1.578-1.106.58-1.158-1.843zm4.367-3.84l1.157 1.21s.842.052.842-.158.158-1.315.158-1.315l.58-.526-.527-1.158-1.316.474-.894 1.473z"/>
<path class="state border" id="MI" d="M374.93 49.582l1.19-1.34 1.413-.52 3.497-2.53 1.488-.37.298.296-3.348 3.348-2.158 1.265-1.34.596-1.04-.744zm56.088 20.912l.42 1.63 2.105.106.842-.79s-.053-.946-.263-1.052c-.21-.105-1.052-1.21-1.052-1.21l-1.42.158-1.053.105-.21.738.63.316zm-65.284-1.936l.466-.378 1.79-.526 2.314-1.473v-.63l.42-.42 3.894-.632 1.578-1.263 2.84-1.368.106-.842 1.263-1.894 1.158-.525.84-1.157 1.474-1.473 2.84-1.58 3.053-.314.736.737-.21.632-2.42.63-.947 2-1.474.525-.316 1.578-1.578 2.105-.21 1.683.525.317.632-.736 2.314-1.893.84.84h1.474l2.105.633.947.736.947 2 1.79 1.788 2.524-.105.948-.632 1.052.84 1.052.317.842-.526h.736l1.053-.632 2.63-2.315 2.21-.737 4.314-.21 2.946-1.263 1.684-.842.947.107v3.682l.315.21 1.893.526 1.263-.316 3.998-1.052.737-.737.948.317v4.525l2.104 2 .842.42.842.63-.842.21-.526-.21-2.42-.315-1.368.42-1.473-.104-2.105.947h-1.157l-3.788-.842-3.367.105-1.263 1.684-4.524.42-1.578.527-.737 2-.842.736-.315-.106-.946-1.052-2.947 1.578h-.42l-.737-1.052-.526.106-1.263 2.84-.63 2.63-2.07 4.558-.767-.674-.892-.67-1.263-6.697-2.307-.89-1.336-1.49-7.888-1.784-1.86-.67-5.356-1.415-5.135-.743-2.42-3.35zm84.853 42.973l-2.104-5.365-1.473-5.893-1.58-2.104-1.682-1.157-1.052.737-2.526 1.158-1.262 3.26-1.79 2.42-.736.422-.947-.42s-1.683-.948-1.578-1.368c.105-.422.316-3.263.316-3.263l2.21-.842.525-2.21.42-1.683 1.58-1.052-.21-6.524-1.053-1.473-.842-.526-.526-1.368.526-.527 1.052.21.106-1.052-1.578-1.472-.84-1.684h-1.685l-2.946-.947-3.577-2.21h-1.788l-.42.422-.633-.317-2-1.473-1.893 1.157-1.895 1.473.21 2.315.632.21 1.368.316.316.528-1.683.526-1.683.21-.947 1.158-.21 1.367.21 1.052.21 3.577-2.315 1.367-.42-.105v-2.736l.84-1.578.422-1.58-.526-.525-1.263.526-.63 2.735-1.79.737-1.157 1.262-.106.632.42.526-.42 1.683-1.473.316v.737l.525 1.58-.736 3.997-1.053 2.63.42 3.052.316.737-.526 1.578-.21.527-.21 1.79 2.314 3.892 1.895 4.208.947 3.156-.526 3.052-.63 3.893-1.58 3.366-.21 1.79-2.12 2.007 2.868-.106 13.94-1.473 4.738-.642.063 1.084 4.46-.79 6.702-.977 2.51-.3.09-.384.104-.947 1.37-2.42 1.3-1.132-.144-3.288 1.04-1.04.71-.223.144-2.314 1-1.973.684.394.105.42.525.106 1.263-.63-.21-6.21z"/>
<path class="state border" id="MN" d="M305.688 80.02l-.297-5.505-1.19-4.762-1.19-8.78-.298-6.398-1.19-2.232-1.042-3.274v-6.697l.447-2.53-1.186-3.548 19.614.023.21-5.366.42-.105 1.474.315 1.263.526.527 3.578.947 3.998 1.052 1.053h3.157l.21.947 4.104.21v1.368h3.156l.21-.842.737-.736 1.473-.42.842.63h1.894l2.524 1.683 3.473 1.58 1.578.314.316-.63.948-.316.315 1.894 1.684.842.316-.315.84.105v1.368l1.685.63h2l1.05-.525 2.106-2.105 1.683-.315.526 1.157.316.842h.63l.632-.526 5.787-.21 1.156 2h.42l.465-.707 2.89-.242-.397 1.483-2.564 1.197-6.02 2.643-3.106 1.307-2 1.683-1.578 2.315-1.473 2.525-1.157.526-2.946 3.262-.842.105-2.817 1.795-1.602 2.086-.15 2.077.063 5.236-.895 1.1-3.308 2.447-1.45 3.894 1.868 1.453.443 2.1-1.208 2.11.11 2.438.24 4.38 1.972 1.955h2.167l1.23 2.04 2.2.326 2.51 3.69 4.614 2.68 1.395 1.872.436 4.19-52.858.746-.22-23.22-.298-1.935-2.678-2.233-.745-1.19v-1.042l1.34-1.04.893-.894.148-2.083z"/>
<path class="state border" id="MO" d="M359.843 157.662l-1.64-2.01-.745-1.487-41.888 1.562-1.488.075.818 1.637-.148 1.487 1.636 2.53 2.01 2.678 2.008 1.786 1.407.15.974.595v1.934l-1.19 1.04-.298 1.49 1.338 2.23 1.637 1.935 1.637 1.19.893 7.59.204 23.478.148 3.05.298 3.504 14.6-.564 15.105-.446 13.542-.52 7.586-.15 1.412 2.23-.446 2.15-2.01 1.565-.372 1.196 3.5.298 2.536-.447 1.118-3.576.424-3.812 1.365-1.663 1.69-.97.034-1.984.66-1.26-1.103-1.657-.866.64-1.296-1.45-.836-3.097.52-1.64-1.264-2.23-1.192-2.978-3.124-.52-4.535-3.645-1.12-2.677.52-2.083 1.34-3.943.3-1.864-1.27-.67-4.46-.52-.67-1.115-.072-2.753-3.57-2.233-4.54-5.06-1.49-4.76-.15-2.75.523-1.49z"/>
<path class="state border" id="MS" d="M407.433 295.147l-.165.818H403.9l-.946-.526-1.368-.212-4.42 1.263-1.157-.525-1.684 2.735-.718.507-.73-1.62-.745-2.53-2.232-2.082.745-3.61-.447-.594-1.19.15-5.154.568-15.976.243-.5-1.448.567-5.452 2.03-3.692 3.4-5.952-.29-1.584.806-.427.285-1.25-1.51-1.352-.074-1.394-1.194-2.683-.07-3.88.864-1.616-.146-2.222-1.15-2.007.992-.963-1.022-1.627.297-1.076 1.028-4.248 1.618-1.325-.418-1.54 2.38-3.45 1.844-.884-.143-1.09-.19-1.094 1.873-3.624 1.527-.802.1-.58 24.304-2.527.12 4.09.106 10.836-.526 20.203-.105 9.153 1.787 12.206.967 8.717z"/>
<path class="state border" id="MT" d="M236.677 33.252l-19.965-1.828-19.045-2.314-19.044-2.63-21.044-3.473-11.997-2.21-21.3-4.512-2.914 13.894 2.23 4.91-.892 2.976 1.19 2.976 2.084.893 3.008 7.01 1.754 2.067.297.744 2.234.744.297 1.34-4.612 11.457v1.637l1.637 2.083h.595l3.125-1.934.447-.744 1.04.445-.148 3.423 1.786 8.184 1.935 1.637.595.445 1.19 1.488-.297 2.232.446 2.232.743.596 1.488-1.488h1.787l2.083 1.04 1.637-.594h2.678l2.38 1.043 1.787-.298.297-1.934 1.934-.446.893.893.297 2.083.928.543 1.23-7.182 69.476 8.742 5.73-56.17z"/>
<path class="state border" id="NC" d="M539.836 187.734l1.357 3.2 2.315 4.21 1.578 1.578.42 1.473-1.578.105.527.42-.21 2.737-1.684.842-.42 1.367-.842 1.893-2.42 1.053-1.578-.21-.947-.106-1.053-.842.21.842v.63h1.263l.527.843-1.263 4.104h2.736l.42 1.052 1.474-1.473.84-.316-1.26 2.315-2 3.157h-.842l-.737-.317-1.788.42-3.368 1.58-4.208 3.47-2.21 3.053-1.263 4.21-.314 1.577-3.052.316-3.55.87-6.473-5.34-8.206-4.946-1.894-.526-8.207.947-2.784.49-1.053-2.106-1.933-1.38-10.733.317-4.734.526-5.892 2.946-3.998 1.683-13.784 1.683.325-2.638 1.158-.947 1.79-.42.42-2.42 2.735-1.79 2.525-.946 2.736-2.315 2.842-1.37.42-1.998 2.526-2.525.42-.106s0 .738.527.738c.526 0 1.263.21 1.263.21l1.473-2.314 1.37-.42 1.472.21 1.052-2.316 1.894-1.683.316-1.368.122-2.375 2.783-.014 4.685-.557 10.256-1.465 9.852-1.358 14.085-3.072 13.007-2.772 7.275-1.566 3.286-.753zm2.78 21.614l1.683-1.63 2.05-1.685 1-.42.105-1.316-.42-3.998-.948-1.527-.42-1.21.473-.158 1.79 3.577.262 2.894-.105 2.21-2.21 1-1.84 1.578-.738.79-.685-.106z"/>
<path class="state border" id="ND" d="M305.732 80.082l-.4-5.49-1.09-4.436-1.233-8.477-.298-7.152-1.132-2.003-1.144-3.38.02-6.8.406-2.488-1.193-3.558-18.644-.368-12.1-.42-17.256-.843-14.935-1.39-4.552 43.724 35.754 2.176 37.795.902z"/>
<path class="state border" id="NE" d="M312.757 152.838l2.103 4.57-.084 1.497 2.25 3.576 1.77 2.053h-3.285l-28.3-.61-26.548-.58-14.483-.51.697-13.882-21.035-1.9 2.827-28.645 10.118.67 13.095.744 11.606.743 15.475.744 6.994-.298 1.338 1.487 3.125 1.935.744.595 2.827-.893 2.53-.297 1.785-.15 1.19.894 2.64 1.042 1.935 1.042.298 1.04.595 1.34h1.19l.52.03.582 3.048 1.9 5.512.373 2.445 1.643 2.455.37 3.33 1.047 2.76.164 4.213z"/>
<path class="state border" id="NH" d="M569.657 88.873l.566-.7.71-2.143-1.656-.594-.316-2-2.524-.736-.21-1.79-4.735-15.256-2.994-9.466-.584-.003-.42 1.052-.422-.315-.63-.632-.948 1.263-.032 3.275.203 3.69 1.263 1.787v2.63l-2.42 3.296-1.684.738v.736l.737 1.158v5.576l-.527 5.998-.106 3.157.632.84-.107 2.948-.315 1.158.63.462 10.927-2.88 1.415-.392 1.2-1.805 2.347-1.05z"/>
<path class="state border" id="NJ" d="M536.385 118.836l-1.512 1.78v2l-1.263 1.998-.105 1.052.842.842-.105 1.578-1.473.737.525 1.79.105.735 1.79.21.63 1.684 2.315 1.578 1.578 1.053v.526l-1.942 1.754-1.05 1.473-.948 1.79-1.473.84-.302 1.043-.158.79-.396 1.696.71 1.46 2.105 1.895 3.156 1.474 2.63.42.105.948-.525.63.21 1.79h.527l1.368-1.578.526-3.157 1.79-2.63 1.998-4.21.736-3.577-.42-.736-.106-6.103-1.052-2.21-.736.527-1.79.21-.315-.315.738-.63 1.368-1.264.04-.712-.25-2.235.374-1.788-.077-1.28-1.827-1.14-3.315-.766-2.692-.9-2.333-1.07z"/>
<path class="state border" id="NM" d="M183.92 272.15l-.505-3.09 5.626.342 19.64 1.918 17.747 1.1 1.442-12.176 2.51-36.37 1.13-12.618 1.024.083.537-7.267-67.693-6.922-11.388 78.388 10.062 1.295.84-6.524 19.028 1.84z"/>
<path class="state border" id="NV" d="M124.196 116.958l-15.386 83.848-1.193.227-1.023 1.566-1.545.006-.96-1.786-1.703-.246-.502-.72-.675-.036-1.81 1.07-.2 4.417-.236 3.76-.227 5.593-.942 1.36-1.588-.7-44.962-67.82 12.36-43.99 60.59 13.45z"/>
<path class="state border" id="NY" d="M536.84 119.022l-.736-.632-1.684-.105-1.473-1.262-1.06-3.99-2.252.06-1.59-1.764-12.618 2.852-27.99 5.68-4.9.8-.48-4.21.93-.732.84-.736.633-1.053 1.157-.735 1.263-1.158.315-1.052 1.368-1.788.737-.632-.106-.63-.84-2-1.16-.106-1.26-4 1.893-1.156 2.84-.947 2.63-.842 2.105-.316 4.104-.106 1.263.842 1.05.105 1.37-.84 1.682-.737 3.367-.316 1.367-1.157 1.158-2.105 1.052-1.262h1.368l1.262-.737.106-1.473-.947-1.368-.21-.947.736-1.368v-.947h-1.158l-1.157-.526-.526-.736-.105-1.683 3.788-3.577.42-.526.948-1.894 1.895-2.947 1.79-2.42 1.367-1.578 1.572-1.188 2.005-.81 3.577-.843 2.104.105 2.947-.948 4.924-1.348.34 3.24 1.578 4.21.526 3.367-.63 2.527 1.682 2.946.526 1.368-.526 1.895 1.894.84.42.212 2 7.155-.35 3.293-.314 7.05.526 3.577.526 2.315.947 4.735v5.26l-.737 1.474 1.197 1.297.52 1.093-1.264 1.157.212.842.842-.21.946-.842 1.474-1.684.736-.422 1.052.42 1.473.106 5.156-2.525 1.895-1.79.842-.947 2.736 1.052-2.21 2.315-2.525 1.894-4.63 3.473-1.683.63-3.788 1.264-2.63.737-.766-.347-.157-2.4.315-1.79-.105-1.367-1.83-1.106-2.947-.63-2.526-.738-2.42-1.158z"/>
<path class="state border" id="OH" d="M474.972 122.004l-3.966 2.64-2.525 1.472-2.21 2.42-2.63 2.525-2.104.527-1.894.316-3.577 1.683-1.368.106-2.21-2-3.367.42-1.684-.946-1.55-.88-3.184.46-6.63 1.05-7.293 1.423.84 9.522 1.158 8.943 1.684 15.257.368 3.145 2.683-.084 1.58-.526 2.188.978 1.35 2.84 3.343-.01 1.232 1.38 1.146-.044 1.653-.872 1.63.242 3.53.314 1.123-1.388 1.526-.842 1.348-.443.42 1.79 1.158.63 2.263 1.527 1.42-.053.87-.32.12-1.798 1.03-.947.065-3.12.667-2.675.845-.39.86.746.35 1.106 1.12-.676.285-.95-.726-1.24.043-1.505.486-.698 1.4-2.152.685-1.005 1.37.316 1.472-1.052 2-2.21 1.803-2.655.208-3.29.316-3.263-.116-3.454-.62-1.884.227-.776 1.176-1.14-1.49-5.888-1.894-12.602z"/>
<path class="state border" id="OK" d="M243.924 204.986l-10.86-.828-.572 7.128 13.32.753 20.864.848-1.52 15.893-.297 11.608.148 1.04 2.827 2.382 1.34.744.446-.15.447-1.338.893 1.19h1.34v-.892l1.785.893-.298 2.53 2.68.148 1.636.744 2.678.446 1.638 1.19 1.488-1.34 2.232.447 1.637 2.232h.595v1.488l1.488.447 1.488-1.488 1.19.446h1.638l.595 1.637 4.1 1.353.893-.446 1.19-2.68h.744l.744 1.34 2.68.447 2.38.892 1.935.595 1.19-.595.447-1.637h2.827l1.338.595 1.786-1.34h.744l.447 1.042h2.678l1.042-1.34 1.19.3 1.34 1.636 2.083 1.19 2.083.595 1.264.73-.253-24.225-.892-7.143-.104-5.774-.937-4.255-.507-4.673-.044-2.484-7.9.208-30.207-.298-29.315-1.34-15.81-.892z"/>
<path class="state border" id="OR" d="M93.168 110.42l5.76-22.65.684-2.753 1.532-3.66-.4-.757-1.637-.03-.834-1.088.297-.953.328-2.114 2.902-3.57 1.19-.717.744-.745.967-2.32 2.636-3.69 2.32-2.514.15-2.246-2.13-1.606-1.16-3.022-8.242-2.35-9.82-2.308-10.045.075-.3-.893-3.57 1.34-2.902-.373-1.562-1.04-.82.445-3.05-.15-1.115-.892-3.422-1.34-.52.076-2.828-.968-1.265 1.19-4.017-.222-3.87-2.68.447-.52.15-5.06-1.49-2.53-2.677-.37-.447-1.638-1.53-.303-3.775 1.34-1.473 4.21-2.105 6.522-2.104 4.21L30.9 60.91l-4.208 8.84-5.26 8.206-1.263 1.894-.527 5.577.25 7.862 73.275 17.13z"/>
<path class="state border" id="PA" d="M533.42 142.418l.85-.176 1.517-.816.79-1.616 1.05-1.473 2.106-2v-.525l-1.58-1.053-2.313-1.58-.632-1.682-1.79-.21-.104-.737-.526-1.788 1.473-.737.106-1.578-.84-.842.104-1.052 1.263-2v-1.998l1.755-1.722-.6-.44-1.64-.125-1.495-1.263-1.01-3.98-2.28.065-1.598-1.76-11.775 2.732-27.988 5.682-5.787.947-.404-4.243-3.49 3.298-.842.316-2.735 1.96 1.895 12.455 1.615 6.333 2.325 12.537 2.128-.415 7.774-.978 24.685-4.99 9.682-1.837 5.403-1.056.174-.156 1.368-1.053 1.367-.442z"/>
<path class="state border" id="RI" d="M565.277 112.61l-2.405-9.734 4.08-1.2 1.426 1.253 2.153 2.812 1.75 2.865-1.952 1.057-.842-.105-.736 1.157-1.58 1.262-1.893.63z"/>
<path class="state border" id="SC" d="M494.25 261.836l-1.157.63-1.683-.84-.42-1.37-.843-2.314-1.473-1.368-1.684-.42-1.052-3.157-1.79-3.893-2.734-1.263-1.368-1.262-.842-1.683-1.368-1.263-1.473-.842-1.473-1.893-2-1.474-2.945-1.157-.316-.947-1.58-1.895-.315-.947-2.21-3.367-2.21.106-2.63-1.578-.842-.842-.21-1.157.526-1.264 1.472-.63-.332-1.49 3.754-1.522 5.933-2.987 5.06-.526 10.49-.274 1.716 1.222 1.093 2.186 2.8-.397 8.207-.947 1.894.526 8.207 4.945 6.58 5.287-3.53 3.553-1.682 4-.316 4.102-1.052.526-.737 1.79-1.578.42-1.37 2.315-1.788 1.788-1.473 2.21-1.053.527-2.315 2.21-1.894.105.63 2.104-3.26 3.578-1.368.842z"/>
<path class="state border" id="SD" d="M306.475 128.966l-.03-.378-1.885-3.153 1.21-3.067.972-3.832-1.81-1.353-.25-1.786.514-1.663 2.076.01-.08-3.258-.217-19.64-.402-2.452-2.65-2.168-.64-1.09-.04-1.048 1.315-.996.997-1.084.16-1.73-37.918-1.04-35.668-2.246-3.467 41.455 9.497.588 12.985.785 11.548.604 15.476.85 7.798-.277 1.28 1.46 3.38 2.118.498.47 2.956-.945 4.257-.4 1.09.87 2.736 1.04 1.917 1.063.26.966.676 1.458 1.455-.13z"/>
<path class="state border" id="TN" d="M449.818 203.315l-33.776 3.262-10.258 1.158-3.007.333-2.518-.018-.145 2.67-5.328.17-4.524.422-5.266-.08-.92 4.603-1.105 3.567-2.143 1.79-.88 2.852-.21 1.683-2.63 1.473.947 2.315-.63 2.84-.63.515 70.396-6.774.263-2.574 1.178-.97 1.845-.488.436-2.42 2.668-1.76 2.634-.972 2.658-2.324 2.887-1.318.34-1.997 2.645-2.593.358-.075s.02.737.547.737c.526 0 1.262.23 1.262.23l1.474-2.335 1.346-.42 1.48.192 1.04-2.3 1.925-1.722.275-1.262.2-2.415-1.396-.13-1.694 1.32-4.552.02-11.95 1.553-5.246 1.242z"/>
<path class="state border" id="TX" d="M231.636 211.334l14.77.706 20.236.744-1.52 15.267-.192 11.817.044 1.355 2.827 2.485 1.294.942.77-.365.244-1.183.742 1.174 1.375.028-.002-.942 1.087.63.74.266-.233 2.582 2.66.06 1.905.78 2.574.342 1.55 1.354 1.382-1.352 2.425.4 1.445 2.1.7.208-.104 1.28 1.44.515 1.517-1.337 1.39.4 1.45.023.608 1.585 4.12 1.377 1.035-.5.97-2.72h.222l.59.054.8 1.346 2.557.433 2.172.73 2.23.778 1.198-.635.465-1.636 2.898.028 1.177.606 1.822-1.37.72.03.553 1.044h2.64l.987-1.32 1.216.264 1.266 1.565 2.292 1.33 1.86.527.986.52 1.592 1.3 1.98-.864 1.752.742.367 3.974-.026 6.315.446 6.205.457 2.347 1.74 2.875.586 3.223 2.743 3.604.127 2.047.486.51-.475 5.455-1.868 3.26.997 1.4-.41 1.522-.437 4.82-.98 2.172.193 2.278-3.687 1.032-6.42 2.946-.63 1.263-1.684 1.26-1.368.948-.842.526-3.683 3.473-1.788 1.368-3.473 2.104-3.682 1.577-4.104 2.21-1.157.947-3.79 2.315-2.21.42-2.524 3.577-2.63.21-.632 1.263 1.473 1.263-.947 3.577-.842 2.947-.736 2.525-.526 2.946.526 1.578 1.157 4.525.63 4 1.158 1.788-.63.947-2 1.263-3.683-2.526-3.578-.736-.84.315-2.106-.42-2.735-2-3.367-.735-4.945-2.21-1.368-2.525-.842-4.21-2.104-1.262-.422-1.473.42-.42.21-2.21-.84-.42-.42-.632.84-2.84-1.052-1.474-2.104-.843-2.21-2.84-2.315-4.315-2.735-1.684.105-1.262-3.472-7.997-.526-2.737-1.16-1.262-.104-.946-3.893-3.473-1.684-1.998v-.736l-1.684-1.368-4.42-.737-4.84-.42-2-1.473-2.945 1.158-2.314.947-1.473 2.104-.63 2.42-2.842 3.998-1.578 1.58-1.683-.633-1.16-.735-1.26-.42-2.526-1.474v-.42l-1.158-1.263-3.367-1.368-4.84-5.05-1.474-3.052v-5.26l-2.105-4.21-.314-1.79-1.052-.63-.737-1.368-3.262-1.368-.842-1.052-4.63-5.156-.84-2.105-3.052-1.474-.946-2.84-1.684-1.895-1.263-.314-.422-3.045 5.208.448 18.898 1.785 18.9 1.042 1.453-12.667 2.53-36.16 1.04-12.202.894.02m64.456 149.48l-.37-4.63-1.787-4.682-.37-4.577 1-5.366 2.158-4.47 2.262-3.526 2.052-2.315.42.157-3.103 4.314-2.84 4.263-1.316 4.314-.212 3.367.58 3.998 1.682 4.682.316 3.367.105.948-.577.158z"/>
<path class="state border" id="UT" d="M165.27 198.01l-54.51-7.726 13.4-73.25 30.447 5.692-.966 6.92-1.504 8.573 5.082.603 10.68 1.175 5.343.556-7.97 57.457z"/>
<path class="state border" id="VA" d="M537.66 169.35l-.094-1.268 4.2-1.66-.5 2.095-1.9 2.46-.273 2.984.3 2.208-1.19 3.24-1.408 1.247-.957-3.02.29-3.547 1.033-2.723.5-2.016zm2.174 18.42l-37.864 8.185-24.36 3.436-4.347-.243-1.683 1.254-4.776.144-5.456.637-7.104 1.05 6.814-3.65-.01-1.35.99-1.398 6.87-7.486 2.568 2.914 2.463.628 1.654-.743 1.456-.853 1.65.874 2.55-.93 1.22-2.964 1.693.35 1.86-1.386 1.17.32 1.84-2.392.227-1.356-.628-.83.653-1.215 3.433-7.99.4-3.733.8-.34 1.42 1.59 2.56-.197 1.256-4.93 1.82-.365.682-1.784 1.68-1.527 1.804-3.707.055-3.3 6.392 2.49c.443.22.542-3.287.542-3.287l2.377 1.04.044 1.913 3.766.846 1.388.765 1.08 1.338-.425 2.375-1.27 1.687.073 1.34.383 1.206 3.24.825 2.898.026 1.997.624 1.266.2.465 2.012 2.078.262.565.78-.286 3.053.895.718-.312 1.256.8.513-.144.902-1.754-.062.058 1.05 1.485 1.006.08.918 1.153 1.162.32 1.642-1.662.9 1.024.972 3.775-1.097 2.35 3.913z"/>
<path class="state border" id="VT" d="M546.02 96.444l.207-3.48-1.882-7.018-.42-.21-1.895-.842.527-1.894-.527-1.368-1.757-3.02.63-2.525-.525-3.367-1.578-4.21-.524-3.203 17.195-4.382.202 3.595 1.247 1.784v2.63l-2.413 3.293-1.684.744-.008.73.853.99-.203 5.27-.396 6.026-.15 3.617.632.842-.106 2.974-.315 1.1.66.473-4.84.98-2.93.47z"/>
<path class="state border" id="WA" d="M62.806 1.127l2.84.947 6.314 1.788 5.577 1.263 13.047 3.683 14.94 3.682 9.91 2.088-8.873 41.386-8.1-2.294-10.093-2.324-9.913.02-.296-.874-3.644 1.418-2.99-.48-1.4-1.03-.854.428-3.082-.09-1.105-.88-3.426-1.374-.478.095-2.858-.993-1.232 1.183-4.08-.195-3.856-2.685.507-.607.08-4.997-1.485-2.5-2.678-.394-.44-1.634-1.482-.298-2.314.8-1.472-2.094.21-1.894 1.79-.21 1.05-2.63-1.682-.738.105-2.42 2.842-.42-1.79-1.79-.946-4.63.42-1.893v-5.155L40.71 10.28l1.473-6.102 1.367.316 1.58 1.894 1.788 1.683 2.104 1.264 2.946 1.368 2 .42 1.893.948 2.21.63 1.474-.104v-1.58l.842-.735 1.368-.84.21.736.21 1.157-1.473.316-.21 1.367 1.158.947.737 1.578.42 1.263.948-.106.105-.842-.63-.842-.317-2.105.527-1.156-.42-.947V9.334l1.157-2.315-.737-1.684L61.86 2.18l.21-.527.736-.526zm-6.155 3.89l1.316-.104.316.894 1-1.052h1.525l.526 1-1 1.105.42.526-.472 1.315-.894.264s-.578.053-.578-.158c0-.21.947-1.683.947-1.683l-1.105-.37-.21.948-.474.422-1-1.473-.315-1.632z"/>
<path class="state border" id="WI" d="M396.7 124.634l-.045-2.055-.767-2.947-.42-3.998-.738-1.58.632-1.998.526-1.894.947-1.683-.42-2.21-.422-2.315.316-1.157 1.26-1.58.107-1.787-.527-.84.42-1.685-.293-2.714 1.79-3.682 1.892-4.42.105-1.472-.21-.632-.527.316-2.736 4.104-1.788 2.63-1.263 1.158-.525 1.473-1.272.526-.737 1.263-.947-.21-.106-1.157.842-1.58 1.367-3.05 1.158-1.052.646-1.535-1.667-1.24-1.286-6.746-2.31-.874-1.266-1.502-7.895-1.77-1.872-.66-5.344-1.41-5.154-.755-2.45-3.34-.49.36-.78-.104-.42-.738-.868.193-.736.106-1.158.632-.63-.42.42-1.264 1.262-2 .737-.735-1.264-.947-1.367.526-1.895 1.262-4.84 2.105-1.895.42-1.894-.316-.64-.572-1.376 1.846-.15 1.785v5.506l-.743 1.04-3.423 2.53-1.488 3.87.298.148 1.637 1.34.447 2.083-1.19 2.084v2.53l.297 4.315 1.935 1.933h2.23l1.19 2.084 2.233.297 2.53 3.72 4.613 2.68 1.34 1.785.595 4.835.447 2.157 1.488 1.042.15.893-1.34 2.232.148 2.082 1.637 2.53 1.637.744 1.935.297.873.9 29.484-1.74z"/>
<path class="state border" id="WV" d="M491.804 151.71l.724 3.218.705 3.926 1.386-1.68 1.472-2 1.653-.4.947-.947 1.157-1.683.94.42 1.894-.21 1.683-1.368 1.306-.946 1.2-.315.85.66 2.37 1.187 1.264 1.157.894.84-.495 3.617-3.797-1.654-2.763-1.056-.066 3.37-1.79 3.604-1.646 1.58-.776 1.79-1.72.326-.585 2.344-.68 2.57-2.582.223-1.51-1.588-.7.364-.41 3.56-.88 2.3-3.227 7.13.584.756-.134 1.242-1.828 2.528-1.177-.354-1.932 1.406-1.655-.373-1.3 2.965s-2.12.93-2.553.89c-.105-.01-1.607-.813-1.607-.813l-1.52.898-1.57.68-2.437-.58-.73-.76-1.427-1.967-2.045-1.294-1.113-2.358-2.79-2.258-.42-1.473-1.683-.947-.527-1.052-.157-3.42 1.42-.052 1.263-.526.105-1.79 1.052-.946.105-3.262.632-2.525.84-.42.843.736.316 1.158 1.157-.63.316-1.054-.738-1.157v-1.578l.632-.843 1.473-2.21.842-.947 1.366.316 1.474-1.052 2-2.21 1.472-2.525.21-3.684.316-3.262v-3.05l-.737-2 .633-.947.835-.842 2.272 12.905 3.015-.49 8.09-1.17z"/>
<path class="state border" id="WY" d="M230.928 89.427l-69.475-8.76-9.167 57.576 73.72 8.842 4.922-57.658z"/>
</svg>